<svg width="80" height="34" viewBox="0 0 80 34" fill="none" xmlns="http://www.w3.org/2000/svg">
<path d="M1.26 3.532H3.042L3.222 4.792H3.348C3.66 4.336 4.044 3.976 4.5 3.712C4.968 3.448 5.502 3.316 6.102 3.316C7.314 3.316 8.136 3.808 8.568 4.792H8.712C9.024 4.348 9.426 3.994 9.918 3.73C10.41 3.454 10.956 3.316 11.556 3.316C12.456 3.316 13.164 3.568 13.68 4.072C14.196 4.576 14.454 5.38 14.454 6.484V13H12.294V6.916C12.294 5.764 11.796 5.188 10.8 5.188C10.272 5.188 9.828 5.404 9.468 5.836C9.12 6.268 8.946 6.82 8.946 7.492V13H6.786V6.916C6.786 5.764 6.288 5.188 5.292 5.188C4.764 5.188 4.32 5.404 3.96 5.836C3.6 6.268 3.42 6.82 3.42 7.492V13H1.26V3.532ZM20.8641 13.216C19.3281 13.216 18.1881 12.814 17.4441 12.01C16.7001 11.206 16.3281 9.958 16.3281 8.266C16.3281 6.574 16.7001 5.326 17.4441 4.522C18.2001 3.718 19.3401 3.316 20.8641 3.316C22.2561 3.316 23.2941 3.706 23.9781 4.486C24.6741 5.266 25.0221 6.484 25.0221 8.14V8.788H18.5241C18.5601 9.724 18.7581 10.414 19.1181 10.858C19.4901 11.29 20.0781 11.506 20.8821 11.506C21.4821 11.506 21.9681 11.356 22.3401 11.056C22.7121 10.744 22.8981 10.288 22.8981 9.688H25.0221C25.0221 10.852 24.6381 11.734 23.8701 12.334C23.1021 12.922 22.1001 13.216 20.8641 13.216ZM22.7721 7.258C22.7721 5.77 22.1361 5.026 20.8641 5.026C20.1441 5.026 19.5981 5.212 19.2261 5.584C18.8661 5.944 18.6441 6.502 18.5601 7.258H22.7721ZM26.9241 3.532H28.7061L28.8861 4.792H29.0121C29.3241 4.336 29.7081 3.976 30.1641 3.712C30.6321 3.448 31.1661 3.316 31.7661 3.316C32.9781 3.316 33.8001 3.808 34.2321 4.792H34.3761C34.6881 4.348 35.0901 3.994 35.5821 3.73C36.0741 3.454 36.6201 3.316 37.2201 3.316C38.1201 3.316 38.8281 3.568 39.3441 4.072C39.8601 4.576 40.1181 5.38 40.1181 6.484V13H37.9581V6.916C37.9581 5.764 37.4601 5.188 36.4641 5.188C35.9361 5.188 35.4921 5.404 35.1321 5.836C34.7841 6.268 34.6101 6.82 34.6101 7.492V13H32.4501V6.916C32.4501 5.764 31.9521 5.188 30.9561 5.188C30.4281 5.188 29.9841 5.404 29.6241 5.836C29.2641 6.268 29.0841 6.82 29.0841 7.492V13H26.9241V3.532ZM46.5282 13.216C44.9922 13.216 43.8522 12.814 43.1082 12.01C42.3642 11.206 41.9922 9.958 41.9922 8.266C41.9922 6.574 42.3642 5.326 43.1082 4.522C43.8642 3.718 45.0042 3.316 46.5282 3.316C47.9202 3.316 48.9582 3.706 49.6422 4.486C50.3382 5.266 50.6862 6.484 50.6862 8.14V8.788H44.1882C44.2242 9.724 44.4222 10.414 44.7822 10.858C45.1542 11.29 45.7422 11.506 46.5462 11.506C47.1462 11.506 47.6322 11.356 48.0042 11.056C48.3762 10.744 48.5622 10.288 48.5622 9.688H50.6862C50.6862 10.852 50.3022 11.734 49.5342 12.334C48.7662 12.922 47.7642 13.216 46.5282 13.216ZM48.4362 7.258C48.4362 5.77 47.8002 5.026 46.5282 5.026C45.8082 5.026 45.2622 5.212 44.8902 5.584C44.5302 5.944 44.3082 6.502 44.2242 7.258H48.4362ZM52.5881 3.532H54.3701L54.5501 4.792H54.6761C55.0241 4.324 55.4501 3.964 55.9541 3.712C56.4701 3.448 57.0581 3.316 57.7181 3.316C58.6781 3.316 59.4281 3.58 59.9681 4.108C60.5081 4.624 60.7781 5.458 60.7781 6.61V13H58.6181V6.988C58.6181 6.34 58.4681 5.878 58.1681 5.602C57.8801 5.326 57.4481 5.188 56.8721 5.188C56.2721 5.188 55.7681 5.404 55.3601 5.836C54.9521 6.268 54.7481 6.82 54.7481 7.492V13H52.5881V3.532ZM65.6345 13.216C64.8305 13.216 64.2485 12.994 63.8885 12.55C63.5405 12.094 63.3665 11.53 63.3665 10.858V5.296H62.2145V3.532H63.4025L63.7985 0.885999H65.5265V3.532H67.1465V5.296H65.5265V10.642C65.5265 11.182 65.7845 11.452 66.3005 11.452H67.1465V12.928C66.9545 13 66.7145 13.066 66.4265 13.126C66.1385 13.186 65.8745 13.216 65.6345 13.216ZM72.9686 13.216C71.4086 13.216 70.2386 12.814 69.4586 12.01C68.6906 11.206 68.3066 9.958 68.3066 8.266C68.3066 6.574 68.6906 5.326 69.4586 4.522C70.2386 3.718 71.4086 3.316 72.9686 3.316C74.5286 3.316 75.6926 3.718 76.4606 4.522C77.2406 5.326 77.6306 6.574 77.6306 8.266C77.6306 9.958 77.2406 11.206 76.4606 12.01C75.6926 12.814 74.5286 13.216 72.9686 13.216ZM72.9686 11.452C73.8206 11.452 74.4386 11.206 74.8226 10.714C75.2066 10.21 75.3986 9.436 75.3986 8.392V8.14C75.3986 7.096 75.2066 6.328 74.8226 5.836C74.4386 5.332 73.8206 5.08 72.9686 5.08C72.1046 5.08 71.4806 5.332 71.0966 5.836C70.7246 6.328 70.5386 7.096 70.5386 8.14V8.392C70.5386 9.436 70.7246 10.21 71.0966 10.714C71.4806 11.206 72.1046 11.452 72.9686 11.452ZM0.18 23.532H2.448L3.996 27.834C4.188 28.362 4.47 29.322 4.842 30.714H4.932C5.268 29.394 5.544 28.434 5.76 27.834L7.29 23.532H9.468L5.958 33H3.69L0.18 23.532ZM14.87 33.216C13.334 33.216 12.194 32.814 11.45 32.01C10.706 31.206 10.334 29.958 10.334 28.266C10.334 26.574 10.706 25.326 11.45 24.522C12.206 23.718 13.346 23.316 14.87 23.316C16.262 23.316 17.3 23.706 17.984 24.486C18.68 25.266 19.028 26.484 19.028 28.14V28.788H12.53C12.566 29.724 12.764 30.414 13.124 30.858C13.496 31.29 14.084 31.506 14.888 31.506C15.488 31.506 15.974 31.356 16.346 31.056C16.718 30.744 16.904 30.288 16.904 29.688H19.028C19.028 30.852 18.644 31.734 17.876 32.334C17.108 32.922 16.106 33.216 14.87 33.216ZM16.778 27.258C16.778 25.77 16.142 25.026 14.87 25.026C14.15 25.026 13.604 25.212 13.232 25.584C12.872 25.944 12.65 26.502 12.566 27.258H16.778ZM20.9299 23.532H22.7119L22.9099 25.026H23.0359C23.4679 23.886 24.1759 23.316 25.1599 23.316C25.4959 23.316 25.7959 23.37 26.0599 23.478V25.512H25.3759C23.8519 25.512 23.0899 26.364 23.0899 28.068V33H20.9299V23.532ZM32.56 33.216C31.948 33.216 31.39 33.09 30.886 32.838C30.382 32.586 29.974 32.22 29.662 31.74H29.554L29.374 33H27.592V19.986H29.752V24.63H29.86C30.436 23.754 31.384 23.316 32.704 23.316C33.808 23.316 34.69 23.73 35.35 24.558C36.01 25.386 36.34 26.616 36.34 28.248C36.34 29.928 36.01 31.176 35.35 31.992C34.69 32.808 33.76 33.216 32.56 33.216ZM31.912 31.362C32.704 31.362 33.268 31.128 33.604 30.66C33.94 30.18 34.108 29.424 34.108 28.392V28.158C34.108 27.114 33.94 26.358 33.604 25.89C33.268 25.41 32.704 25.17 31.912 25.17C30.472 25.17 29.752 26.172 29.752 28.176V28.392C29.752 29.376 29.926 30.12 30.274 30.624C30.622 31.116 31.168 31.362 31.912 31.362ZM42.3124 33.216C40.7524 33.216 39.5824 32.814 38.8024 32.01C38.0344 31.206 37.6504 29.958 37.6504 28.266C37.6504 26.574 38.0344 25.326 38.8024 24.522C39.5824 23.718 40.7524 23.316 42.3124 23.316C43.8724 23.316 45.0364 23.718 45.8044 24.522C46.5844 25.326 46.9744 26.574 46.9744 28.266C46.9744 29.958 46.5844 31.206 45.8044 32.01C45.0364 32.814 43.8724 33.216 42.3124 33.216ZM42.3124 31.452C43.1644 31.452 43.7824 31.206 44.1664 30.714C44.5504 30.21 44.7424 29.436 44.7424 28.392V28.14C44.7424 27.096 44.5504 26.328 44.1664 25.836C43.7824 25.332 43.1644 25.08 42.3124 25.08C41.4484 25.08 40.8244 25.332 40.4404 25.836C40.0684 26.328 39.8824 27.096 39.8824 28.14V28.392C39.8824 29.436 40.0684 30.21 40.4404 30.714C40.8244 31.206 41.4484 31.452 42.3124 31.452ZM48.8967 23.532H50.6787L50.8767 25.026H51.0027C51.4347 23.886 52.1427 23.316 53.1267 23.316C53.4627 23.316 53.7627 23.37 54.0267 23.478V25.512H53.3427C51.8187 25.512 51.0567 26.364 51.0567 28.068V33H48.8967V23.532ZM58.5648 33.216C56.5248 33.216 55.5048 32.118 55.5048 29.922V23.532H57.6648V29.544C57.6648 30.192 57.8088 30.654 58.0968 30.93C58.3968 31.206 58.8348 31.344 59.4108 31.344C60.0108 31.344 60.5148 31.128 60.9228 30.696C61.3308 30.264 61.5348 29.712 61.5348 29.04V23.532H63.6948V33H61.9128L61.7328 31.74H61.6068C61.2588 32.208 60.8268 32.574 60.3108 32.838C59.8068 33.09 59.2248 33.216 58.5648 33.216ZM66.2112 23.532H67.9932L68.1732 24.792H68.2992C68.6112 24.336 68.9952 23.976 69.4512 23.712C69.9192 23.448 70.4532 23.316 71.0532 23.316C72.2652 23.316 73.0872 23.808 73.5192 24.792H73.6632C73.9752 24.348 74.3772 23.994 74.8692 23.73C75.3612 23.454 75.9072 23.316 76.5072 23.316C77.4072 23.316 78.1152 23.568 78.6312 24.072C79.1472 24.576 79.4052 25.38 79.4052 26.484V33H77.2452V26.916C77.2452 25.764 76.7472 25.188 75.7512 25.188C75.2232 25.188 74.7792 25.404 74.4192 25.836C74.0712 26.268 73.8972 26.82 73.8972 27.492V33H71.7372V26.916C71.7372 25.764 71.2392 25.188 70.2432 25.188C69.7152 25.188 69.2712 25.404 68.9112 25.836C68.5512 26.268 68.3712 26.82 68.3712 27.492V33H66.2112V23.532Z" fill="white"/>
</svg>
